<svg width="475" height="473" viewBox="0 0 475 473" fill="none" xmlns="http://www.w3.org/2000/svg">
<path d="M209.946 389.096V282.596L174.946 244.096L198.946 214.096L235.946 210.596L246.446 167.096L334.446 177.096L393.446 188.096L454.446 177.096L459.946 235.596L425.446 341.596L274.946 432.596L281.946 402.596L174.946 471.096L165.446 472.096L154.446 468.596L209.946 389.096Z" fill="#015061"/>
<path d="M252.803 1.87648e-05C228.61 0.0120188 201.605 5.55202 171.703 17.467C315.403 30.075 322.053 146.73 255.735 150.281C170.465 154.846 202.503 93.064 122.395 47.251C179.391 179.576 73.386 168.426 0 37.326C12.805 123.081 24.28 154.268 78.26 190.922C240.942 301.39 73.564 325.896 15.766 223.626C30.334 317.08 84.13 356.429 147.473 363.556C104.72 388.046 48.021 396.046 4.463 389.112C55.488 431.429 136.069 430.052 197.978 397.688C160.841 433.811 100.532 468.332 81.175 472.416H255.306C495.946 383.659 509.251 210.546 433.773 102.588C431.34 128.798 423.693 152.095 408.228 172.818C389.748 70.424 339.208 -0.0419812 252.802 1.87648e-05H252.803ZM255.623 184.666L397.007 236.821C397.293 233.614 397.867 230.326 398.754 227.014C404.374 206.041 420.359 192.101 434.459 195.879C448.559 199.657 455.432 219.721 449.812 240.694C444.192 261.668 428.209 275.608 414.109 271.83C413.384 271.636 412.682 271.388 411.996 271.11L351.416 320.504L422.053 340.088L282.03 424.798L347.878 355.932L316.558 348.926L166.223 471.506L324.283 274.616L186.893 233.479L323.899 239.133L255.624 184.666H255.623Z" fill="#00FFBB"/>
</svg>
