<svg xmlns="http://www.w3.org/2000/svg" viewBox="0 0 400 400" fill="none" shape-rendering="auto"><desc>"Adventurer Neutral" by "Lisa Wischofsky", licensed under "CC BY 4.0". / Remix of the original. - Created with dicebear.com</desc><metadata xmlns:dc="http://purl.org/dc/elements/1.1/" xmlns:cc="http://creativecommons.org/ns#" xmlns:rdf="http://www.w3.org/1999/02/22-rdf-syntax-ns#"><rdf:RDF><cc:Work><dc:title>Adventurer Neutral</dc:title><dc:creator><cc:Agent rdf:about="https://www.instagram.com/lischi_art/"><dc:title>Lisa Wischofsky</dc:title></cc:Agent></dc:creator><dc:source>https://www.figma.com/community/file/1184595184137881796</dc:source><cc:license rdf:resource="https://creativecommons.org/licenses/by/4.0/" /></cc:Work></rdf:RDF></metadata><mask id="viewboxMask"><rect width="400" height="400" rx="0" ry="0" x="0" y="0" fill="#fff" /></mask><g mask="url(#viewboxMask)"><rect fill="#f2d3b1" width="400" height="400" x="0" y="0" /><g transform="translate(-279 -322)"><path d="M506.03 461.12c5.5-1.16 11.66 2.44 16.92 3.98 22.15 7.08 45.9 9.46 69.06 7.74 6.23-.6 12.8-2.4 19.04-2 6.2.65 10.4 6.06 10.95 12.05.76 10.8-.8 22-5.08 32a65.62 65.62 0 0 1-30.44 32.6c-21.35 11.07-48.35 9-67.75-5.22-14.69-10.5-24.7-27.34-26.67-45.3-.85-8.7-.38-17.4 2.09-25.8 1.4-5.24 6.78-9 11.88-10.05ZM428.25 466.75c3.63 2.23 5.82 6.6 7.78 10.25 5.54 10.8 7 23.18 4.95 35.07a55.32 55.32 0 0 1-14.73 28.2 55.06 55.06 0 0 1-72.17 5.63 54.77 54.77 0 0 1-21.34-34.89c-.57-3.68-1.52-7.6.15-11.13a12.41 12.41 0 0 1 10.11-7.6c4.94-.59 9.87-1.18 14.78-2 18.38-3.3 35.26-11.25 50.36-22.12 5.88-5.11 13.54-5.46 20.11-1.41Z" fill="#000"/><path d="M513.41 467.65c12.21 5.03 25.5 7.97 38.57 9.71 15.64 2.02 31.39 2.59 47.04.31 3.87-.56 8.11-1.82 12-1.53 2.42.08 4.34 2.67 4.81 4.87a59.18 59.18 0 0 1-5.45 34.37 59.08 59.08 0 0 1-31.6 29.27 58.37 58.37 0 0 1-33.76 3.03 59.62 59.62 0 0 1-40.59-30.1c-6.9-12.96-9.37-29-5.07-43.17 1.67-6.19 8-9.93 14.05-6.76ZM427.77 474.23a51.2 51.2 0 0 1 8.4 23.72c1.23 16.4-6.14 32.97-19.26 42.91a50.17 50.17 0 0 1-30.92 10.3 50.1 50.1 0 0 1-31.68-12.48 49.18 49.18 0 0 1-16.54-33.7c-.47-3.2 2.13-6.47 5.26-6.96 3.24-.67 6.63-.78 9.92-1.18 18.5-2.26 36.6-9.6 52.19-19.69 3.1-1.92 5.86-4.31 8.97-6.18 4.4-2.3 10.95-1.13 13.66 3.26Z" fill="#fff"/><path d="M533.54 496.92c12.3-1.1 23.89 8.53 24.08 21.08.84 11.05-7.56 21.22-18.45 22.83-11.9 2.14-23.93-6.81-25.4-18.8-1.93-12.29 7.5-23.97 19.77-25.1ZM400.49 505.5c5.96-1.31 12.63.86 17.06 4.96a19.5 19.5 0 0 1 3.72 23.81c-4.15 7.79-13.62 11.6-22.08 9.37-8.34-2.18-14.54-9.95-14.42-18.64-.3-9.44 6.57-17.6 15.72-19.5Z" fill="#000"/></g><g transform="translate(-279 -322)"><path d="M545.03 378.5c24.7.94 48.04 8.97 69.45 21 2.26 1.31 4.92 2.48 6.79 4.32 1.3 2.39-.38 5.13-3.2 4.19-16.58-6.2-33.56-9.63-51.06-12.02-20.3-2.34-39.92-3.68-60.2-.13-3.2.44-6.87 2.16-10.08 1.59-2.66-1.69-1.2-6.1 1.29-7.37 13.63-9.33 30.79-12.1 47-11.58ZM407.99 396.92c3.5.64 6.6 1.92 9.63 3.78-.15 1.2-.26 2.4-.33 3.62-2.7.74-5.46 1.12-8.24 1.34-13.17 1.15-26.45 5.1-38.81 9.69-12.23 4.75-24.78 10.64-35.19 18.7-2.82 2.04-4.13 4.83-8.08 4.48-.5-.9-1-1.79-1.51-2.67.9-1.6 1.68-3.17 2.76-4.64 9.55-13.17 23.64-23.22 38.6-29.35 12.7-5.15 27.62-8.05 41.17-4.95Z" fill="#000"/></g><g transform="translate(-279 -322)"><path d="M519 572.72c12.29.18 24.45 2.02 35.94 6.5a92.61 92.61 0 0 1 43.87 34.94c1.14 1.53.8 3.58.95 5.41-7.22.57-14.43-.04-21.67.76.12 7.4 0 14.39-3.75 21.02-2.2 3.77-5.7 7.2-10.34 7.12-4.5-.03-8.23-3.43-10.38-7.1-3.71-6.4-4.2-13.83-4.46-21.04-25.38.12-50.77.29-76.16.43-7.35-.26-14.65.67-22 .42-7.53-.2-14.18.78-21.52-.74.07-1.62-.5-4.04.59-5.37 22.4-25.3 54.86-41.81 88.93-42.35Z" fill="#000"/><path d="M508.98 579.48a152.3 152.3 0 0 1 21.04-.02 88.9 88.9 0 0 1 48.66 20.86c-11.23.4-22.44.62-33.68.58-30.98 1.14-62 .83-92.97 1.81 6.13-4.2 12.16-8.37 18.84-11.68a112.4 112.4 0 0 1 38.1-11.54Z" fill="#8F2E45"/><path d="M569 606.4c5.17 0 10.56-.64 15.68.04 2.37 2.05 4.27 4.7 6.31 7.09-5.88.61-11.88.05-17.7.77-1.23 7.11-.33 16.61-3.6 23.41-1.15 2.7-3.33 4.05-5.67 5.57-2.32-1.57-4.53-2.89-5.74-5.56-3.42-6.8-3.33-15.68-4.08-23.16-5.72-.52-11.4-.06-17.2-.19-32.79.26-65.57.28-98.36.54 2.11-2.04 4.57-5.6 7.5-6.24 17.96-.7 35.91-.24 53.86-1.1 11-.5 22-.08 33-.59 12-.24 24-.08 36-.57Z" fill="#6FA942"/></g><g transform="translate(-279 -322)"></g></g></svg>