<svg xmlns="http://www.w3.org/2000/svg" viewBox="0 0 400 400" fill="none" shape-rendering="auto"><desc>"Adventurer Neutral" by "Lisa Wischofsky", licensed under "CC BY 4.0". / Remix of the original. - Created with dicebear.com</desc><metadata xmlns:dc="http://purl.org/dc/elements/1.1/" xmlns:cc="http://creativecommons.org/ns#" xmlns:rdf="http://www.w3.org/1999/02/22-rdf-syntax-ns#"><rdf:RDF><cc:Work><dc:title>Adventurer Neutral</dc:title><dc:creator><cc:Agent rdf:about="https://www.instagram.com/lischi_art/"><dc:title>Lisa Wischofsky</dc:title></cc:Agent></dc:creator><dc:source>https://www.figma.com/community/file/1184595184137881796</dc:source><cc:license rdf:resource="https://creativecommons.org/licenses/by/4.0/" /></cc:Work></rdf:RDF></metadata><mask id="viewboxMask"><rect width="400" height="400" rx="0" ry="0" x="0" y="0" fill="#fff" /></mask><g mask="url(#viewboxMask)"><rect fill="#f2d3b1" width="400" height="400" x="0" y="0" /><g transform="translate(-279 -322)"><path d="M619.37 468.64c3.87 2.6 8.11 5.27 11.16 8.82.3 1.66.07 3.43.04 5.12-1.93.6-3.41 1.04-5.4.26-29.1-10.45-62.1-9.7-91.32-.07-12.55 4.26-25.01 10.37-35.3 18.8-1.32 1.05-3.89 2.91-5.3 1.13-1.7-1.56-.63-3.53.2-5.23 7.13-12.76 18-23.13 30.66-30.34 29.02-16.58 66.88-16.42 95.26 1.5ZM405.49 480.39c11.64 2.56 23.55 8.63 31.2 17.94 2.8 3.9 6.47 8.06 5.88 13.18-1.58-.03-3.27.7-4.53-.5a50.83 50.83 0 0 0-13.92-8.1c-15.2-5.92-32.5-7.15-48.6-5.03-12.43 1.78-26.06 5.7-36 13.69-1.9 1.3-3.17 2.8-5.67 1.81a5.46 5.46 0 0 1 .33-6.17c16-21.77 45.05-31.82 71.31-26.81Z" fill="#000"/></g><g transform="translate(-279 -322)"><path d="M414.18 389.84c-5.5-7.26-14.52-9.33-23.2-8.38-13.12 1.9-24.56 8.53-34.46 17.08-10.76 9.47-19.88 21.7-24.72 35.27-.66 1.92-1.27 4.69 1.03 5.74 2.1.24 2.83.08 4.11-1.6 11.58-14.9 26.26-27.61 43.54-35.44 8.2-3.6 17.55-6.09 26.55-5.69 1.03.04 2.1.21 3.15.39 1.67.27 3.35.55 4.96.3 2.9-2.23.74-5.27-.86-7.53l-.1-.14ZM592.9 408.15c-18.2-10.23-38.04-17.1-58.92-18.97-10.05-.75-21.44-.2-30.72 4.09-6.76 3.16-12.37 8.56-13.57 16.22l-.12.95c-.38 2.89-.88 6.8 1.32 8.78 1.99.78 3.6-.34 5.23-1.46.74-.51 1.49-1.03 2.27-1.36 13.86-6.86 30.29-9.28 45.61-9.7 15.48.06 31.36 2.13 46.03 7.2l.48.13c1.46.4 2.74.74 3.89-.62 1.8-1.88.48-4.24-1.5-5.25Z" fill="#000"/></g><g transform="translate(-279 -322)"><path d="M453.25 567.36c4.1-.57 8.25-.35 12.08 1.33 7.6 3.15 12.7 10.48 14.48 18.34 3.17 12.11-1.32 25.91-11.67 33.21-3.02 2.43-6.72 3.47-10.48 2.14-3.55-1.73-5.24-5.25-6.16-8.9-1.46-5.32 1.2-10.53.14-16.17-1-4.18-4.74-7.42-6.58-11.4-1.24-2.68-2.42-5.94-2.07-8.92.75-5.02 5.39-8.88 10.26-9.63Z" fill="#000"/></g><g transform="translate(-279 -322)"></g></g></svg>