<svg xmlns="http://www.w3.org/2000/svg" viewBox="0 0 400 400" fill="none" shape-rendering="auto"><desc>"Adventurer Neutral" by "Lisa Wischofsky", licensed under "CC BY 4.0". / Remix of the original. - Created with dicebear.com</desc><metadata xmlns:dc="http://purl.org/dc/elements/1.1/" xmlns:cc="http://creativecommons.org/ns#" xmlns:rdf="http://www.w3.org/1999/02/22-rdf-syntax-ns#"><rdf:RDF><cc:Work><dc:title>Adventurer Neutral</dc:title><dc:creator><cc:Agent rdf:about="https://www.instagram.com/lischi_art/"><dc:title>Lisa Wischofsky</dc:title></cc:Agent></dc:creator><dc:source>https://www.figma.com/community/file/1184595184137881796</dc:source><cc:license rdf:resource="https://creativecommons.org/licenses/by/4.0/" /></cc:Work></rdf:RDF></metadata><mask id="viewboxMask"><rect width="400" height="400" rx="0" ry="0" x="0" y="0" fill="#fff" /></mask><g mask="url(#viewboxMask)"><rect fill="#ecad80" width="400" height="400" x="0" y="0" /><g transform="translate(-279 -322)"><path d="M561.86 423.28c1.8.47 1.92 1.91 1.98 3.5.02 6.73-.89 13.42-.75 20.17 8.34.57 16.1 2 24.1 4.41 3.08-7.1 5.82-14.35 8.72-21.52.94-1.82 1.46-4.16 4.03-3.81 2.35.23 2.58 3 1.77 4.75-2.95 7.55-6.03 15.07-9.09 22.57a69.85 69.85 0 0 1 18.22 10.84c4.88-4.58 9.61-9.35 14.61-13.8 1.61-1.56 3.31-1.05 5.34-1.14-.18 1.98.26 3.67-1.37 5.17-4.75 4.73-9.7 9.27-14.6 13.87 3.57 5.14 6.56 10.24 6.7 16.7.65 9.88-4.85 18.26-12.06 24.45-11.14 9.42-26.17 14.24-40.45 16.09-16.6 1.82-33.82.84-49.57-5.05-9.18-3.45-18.18-8.76-24.39-16.5-5.05-6.41-7.79-14.68-5.7-22.8 2.47-9.88 9.93-17.24 18.37-22.43 14.8-8.93 32.37-12.08 49.46-12.05.24-6.57.54-13.17 1.11-19.72.06-1.98 1.23-4.28 3.56-3.7ZM371.98 441.39c1.93-.19 2.6 2.2 3.14 3.63 1.19 4.97 1.3 10.2 2.17 15.24a98.97 98.97 0 0 1 25.73.76c10.86 2.02 22.05 6.02 30.13 13.83 4.96 4.66 8.49 11.22 8.27 18.15-.46 7.42-4.43 13.69-9.92 18.48-8.9 7.86-21.44 11.98-33.01 13.71-15.71 2.23-32.97.68-47.4-6.25-8.5-4.18-17-11.26-19.21-20.87-1.3-5.19-.04-9.95 1.97-14.74-3.86-3.53-7.7-7.1-11.45-10.73-.82-1.01-2.4-2.18-2-3.61.02-2.54 3.45-3.08 4.99-1.37 4 3.5 7.7 7.34 11.68 10.88a55.27 55.27 0 0 1 11.15-9.24c-2.74-6.13-5.52-12.24-8.25-18.36-1.11-2.2-.85-4.39-.7-6.76 1.25.21 2.63.25 3.79.76 1.17 1.19 1.84 2.96 2.56 4.46 2.5 5.77 5.18 11.45 7.58 17.25 5.99-2.57 11.89-4.32 18.29-5.56-.4-5.41-1.7-10.7-2.04-16.11 0-1.53.39-4.08 2.49-3.55Z" fill="#000"/><path d="M539.5 453.67c14.63-2.22 30-1.53 44.23 2.67 9.5 2.94 19.21 7.45 25.93 15.02 4.3 4.85 7.04 11.05 6 17.64-1.06 7.24-5.77 12.91-11.36 17.3-8.8 6.84-20.25 10.76-31.1 12.82-15.74 2.8-32.36 2.12-47.65-2.63-9.43-3.02-19.09-7.77-25.56-15.48-4.32-5.09-6.88-12.4-4.86-19 1.56-6.56 6.67-12 11.93-15.92 9.35-6.79 21.12-10.62 32.44-12.42ZM371.53 466.92c15.61-3 32.9-1.76 47.4 5.05 6.37 3.03 13.4 8.25 15.73 15.18 2.07 5.65.38 11.7-3.31 16.24-4.63 5.75-11.74 9.78-18.58 12.34a80.48 80.48 0 0 1-39.78 3.8c-9.02-1.35-18.44-4.3-25.91-9.67-5.22-3.87-9.62-9.04-9.9-15.83-.19-6.6 3.87-12.1 8.74-16.14 7.19-5.81 16.63-9.2 25.6-10.97Z" fill="#fff"/><path d="M592.24 469.18c2.15-1.56 4.62-.31 5.94 1.67 1.83 3.14 2.15 6.6 2.5 10.16.42 5.18.87 10.72-.26 15.84a6.16 6.16 0 0 1-2.03 3.53c-2.92 1.46-6.85-1.24-7.61-4.16-1.98-6.22-1.92-13.23-1.4-19.7.4-2.36.64-5.9 2.86-7.34ZM413.31 476.33a4.04 4.04 0 0 1 5.96 2.42c1.8 5.09 1.92 10.91 2.05 16.26-.15 3.13-.37 8.05-3.81 9.46-2.59.94-4.59-1.38-5.4-3.58-1.88-5.26-1.76-11.4-1.5-16.9.24-2.36.44-6.28 2.7-7.67Z" fill="#000"/></g><g transform="translate(-279 -322)"><path d="M545.03 378.5c24.7.94 48.04 8.97 69.45 21 2.26 1.31 4.92 2.48 6.79 4.32 1.3 2.39-.38 5.13-3.2 4.19-16.58-6.2-33.56-9.63-51.06-12.02-20.3-2.34-39.92-3.68-60.2-.13-3.2.44-6.87 2.16-10.08 1.59-2.66-1.69-1.2-6.1 1.29-7.37 13.63-9.33 30.79-12.1 47-11.58ZM407.99 396.92c3.5.64 6.6 1.92 9.63 3.78-.15 1.2-.26 2.4-.33 3.62-2.7.74-5.46 1.12-8.24 1.34-13.17 1.15-26.45 5.1-38.81 9.69-12.23 4.75-24.78 10.64-35.19 18.7-2.82 2.04-4.13 4.83-8.08 4.48-.5-.9-1-1.79-1.51-2.67.9-1.6 1.68-3.17 2.76-4.64 9.55-13.17 23.64-23.22 38.6-29.35 12.7-5.15 27.62-8.05 41.17-4.95Z" fill="#000"/></g><g transform="translate(-279 -322)"><path d="M519 572.72c12.29.18 24.45 2.02 35.94 6.5a92.61 92.61 0 0 1 43.87 34.94c1.14 1.53.8 3.58.95 5.41-7.22.57-14.43-.04-21.67.76.12 7.4 0 14.39-3.75 21.02-2.2 3.77-5.7 7.2-10.34 7.12-4.5-.03-8.23-3.43-10.38-7.1-3.71-6.4-4.2-13.83-4.46-21.04-25.38.12-50.77.29-76.16.43-7.35-.26-14.65.67-22 .42-7.53-.2-14.18.78-21.52-.74.07-1.62-.5-4.04.59-5.37 22.4-25.3 54.86-41.81 88.93-42.35Z" fill="#000"/><path d="M508.98 579.48a152.3 152.3 0 0 1 21.04-.02 88.9 88.9 0 0 1 48.66 20.86c-11.23.4-22.44.62-33.68.58-30.98 1.14-62 .83-92.97 1.81 6.13-4.2 12.16-8.37 18.84-11.68a112.4 112.4 0 0 1 38.1-11.54Z" fill="#8F2E45"/><path d="M569 606.4c5.17 0 10.56-.64 15.68.04 2.37 2.05 4.27 4.7 6.31 7.09-5.88.61-11.88.05-17.7.77-1.23 7.11-.33 16.61-3.6 23.41-1.15 2.7-3.33 4.05-5.67 5.57-2.32-1.57-4.53-2.89-5.74-5.56-3.42-6.8-3.33-15.68-4.08-23.16-5.72-.52-11.4-.06-17.2-.19-32.79.26-65.57.28-98.36.54 2.11-2.04 4.57-5.6 7.5-6.24 17.96-.7 35.91-.24 53.86-1.1 11-.5 22-.08 33-.59 12-.24 24-.08 36-.57Z" fill="#6FA942"/></g><g transform="translate(-279 -322)"></g></g></svg>