<svg xmlns="http://www.w3.org/2000/svg" viewBox="0 0 400 400" fill="none" shape-rendering="auto"><desc>"Adventurer Neutral" by "Lisa Wischofsky", licensed under "CC BY 4.0". / Remix of the original. - Created with dicebear.com</desc><metadata xmlns:dc="http://purl.org/dc/elements/1.1/" xmlns:cc="http://creativecommons.org/ns#" xmlns:rdf="http://www.w3.org/1999/02/22-rdf-syntax-ns#"><rdf:RDF><cc:Work><dc:title>Adventurer Neutral</dc:title><dc:creator><cc:Agent rdf:about="https://www.instagram.com/lischi_art/"><dc:title>Lisa Wischofsky</dc:title></cc:Agent></dc:creator><dc:source>https://www.figma.com/community/file/1184595184137881796</dc:source><cc:license rdf:resource="https://creativecommons.org/licenses/by/4.0/" /></cc:Work></rdf:RDF></metadata><mask id="viewboxMask"><rect width="400" height="400" rx="0" ry="0" x="0" y="0" fill="#fff" /></mask><g mask="url(#viewboxMask)"><rect fill="#f2d3b1" width="400" height="400" x="0" y="0" /><g transform="translate(-279 -322)"><path d="M556 424.07a65.21 65.21 0 0 1 41.05 13.82c18.48 14.28 28.2 38.6 24.23 61.66-.97 7.55-3.9 14.28-6.79 21.23-1.4.65-2.88 1.52-4.42 1.77-2.33.07-4.8-.9-7.04-1.55a178.7 178.7 0 0 0-49.03-7.62c-15.06.4-29.61 2.56-43.09 9.64-3.05 1.28-5.82 4.03-8.96 1.26-8.58-12.42-11.56-28.46-9.81-43.32a65.03 65.03 0 0 1 19.83-39A65.11 65.11 0 0 1 556 424.07Z" fill="#000"/><path d="M557 429.85c13.7-.2 27.1 4.84 37.68 13.45a59.16 59.16 0 0 1 19.44 29.7 59.28 59.28 0 0 1-4.3 43.5c-5.35-.6-10.17-2.64-15.46-3.77-16.05-3.75-32.92-5.8-49.39-4.47a92 92 0 0 0-39.3 11.6c-7.05-12.13-10.2-27-7.45-40.83a59.55 59.55 0 0 1 23.8-38.03c10.11-7.24 22.5-11.37 34.98-11.15Z" fill="#fff"/><path d="M381.31 447.08a55.36 55.36 0 0 1 37.02 9.56 55.02 55.02 0 0 1 22.82 35.91c1.2 8.25.97 17.09-1.57 25.09a54.9 54.9 0 0 1-30.47 34.5 55.24 55.24 0 0 1-41.44 1.17 54.92 54.92 0 0 1-27.48-22.52c-5.05-8.05-7.68-17.27-8.31-26.7-.33-12.57 3.39-25.15 11-35.22a55.1 55.1 0 0 1 38.43-21.8Z" fill="#000"/><path d="M376.49 453.67c18.14-4.16 37.8 3.04 49.17 17.7 8.7 11.04 12.73 26.33 9.55 40.13a48.84 48.84 0 0 1-14.55 26.16 49.53 49.53 0 0 1-29.63 13.27c-19.64 1.82-39.23-9.24-48.03-26.86a49.25 49.25 0 0 1 33.5-70.4Z" fill="#fff"/><path d="M519.39 474.75c8.57-2.25 17.85 3.55 19.35 12.31 1.85 8.26-3.88 16.87-12.14 18.52-9.15 2.3-18.91-5.05-19.05-14.53-.72-7.5 4.64-14.5 11.84-16.3ZM403.4 485.62c6.37-2.18 13.28.5 17.27 5.7 4.54 5.94 4.18 14.91-1.03 20.32-5.02 5.79-14.5 6.76-20.65 2.39a15.82 15.82 0 0 1-6.92-13c-.26-6.95 4.69-13.5 11.33-15.4Z" fill="#000"/></g><g transform="translate(-279 -322)"><path d="M452.03 395.85c.66 4.64-1.5 9.35-4.2 13-3.6 4.46-7.82 8.36-12.86 11.13-7.66 4.35-15.96 7.7-24.2 10.81-23.78 8.79-48.55 15.1-73.5 19.48-3.36.54-6.98 1.5-10.37 1.11-1.92-.92-2-2.82-1.1-4.52 2.33-1.8 5.48-2.72 8.18-3.89 35.94-14.72 71.88-29.45 107.8-44.2 3.36-1.25 6.6-3.38 10.25-2.92ZM478.97 396c49.32 7.61 98.68 15.15 148.01 22.75 2.58.42 5.33.58 7.8 1.41 2.45 1.14 1.71 5.04-.95 5.26-9.6.95-19.18 1.82-28.83 1.95-15.39.1-30.64.32-45.98-1.18-20.9-1.64-42.24-4.59-62.25-11.06-6.97-2.4-14.88-5.46-20.27-10.64-1.8-1.9-4.09-4.28-3.17-7.13 1.22-2.13 3.6-1.6 5.64-1.36Z" fill="#000"/></g><g transform="translate(-279 -322)"><path d="M503.97 568.71c3.76-1.34 5.59 4 2.2 5.46-5.64 2.88-10.75 6.61-12.88 12.86-2.34 6.4.4 13.12 4.73 17.96 2.91 3.37 6.6 5.42 10.34 7.69 1.96 1.1 1.31 2.77 1.18 4.6-.86.35-1.71.71-2.57 1.08a36.97 36.97 0 0 1-15.83-12.5c-2.32-3.15-3.35-6.66-4.68-10.27-25.08 2.03-50.35 2.82-75.44 4.7-1.85-.3-2.44-2-3.5-3.32 1.11-1.2 1.69-2.66 3.52-2.77 17.31-.91 34.6-2.03 51.97-2.98 7.82-.76 15.69-.5 23.45-1.56 1.56-9.83 8.58-17.16 17.51-20.96Z" fill="#000"/></g><g transform="translate(-279 -322)"></g></g></svg>