<svg xmlns="http://www.w3.org/2000/svg" viewBox="0 0 400 400" fill="none" shape-rendering="auto"><desc>"Adventurer Neutral" by "Lisa Wischofsky", licensed under "CC BY 4.0". / Remix of the original. - Created with dicebear.com</desc><metadata xmlns:dc="http://purl.org/dc/elements/1.1/" xmlns:cc="http://creativecommons.org/ns#" xmlns:rdf="http://www.w3.org/1999/02/22-rdf-syntax-ns#"><rdf:RDF><cc:Work><dc:title>Adventurer Neutral</dc:title><dc:creator><cc:Agent rdf:about="https://www.instagram.com/lischi_art/"><dc:title>Lisa Wischofsky</dc:title></cc:Agent></dc:creator><dc:source>https://www.figma.com/community/file/1184595184137881796</dc:source><cc:license rdf:resource="https://creativecommons.org/licenses/by/4.0/" /></cc:Work></rdf:RDF></metadata><mask id="viewboxMask"><rect width="400" height="400" rx="0" ry="0" x="0" y="0" fill="#fff" /></mask><g mask="url(#viewboxMask)"><rect fill="#9e5622" width="400" height="400" x="0" y="0" /><g transform="translate(-279 -322)"><path d="M554.99 424.09a65.3 65.3 0 0 1 43.19 14.7c9.2 7.44 16.2 17.65 20.32 28.7 2.1 5.57 2.58 11.14 3.64 16.93-1.32 1.48-1.69 3.34-4.05 3.02-7.04-.31-13.96-2.04-21.03-2.22-8.77-.1-17.38-.37-26.1.95-9.83 1.63-19.5 2.64-29.06 5.72a175.1 175.1 0 0 0-32.49 12.44c-3.35 1.62-6.46 3.76-9.88 5.22-2.08.77-4.42.35-5.29-1.92-2.28-7.19-2.82-15.19-2.45-22.69.94-16 8.12-31.4 19.67-42.5a65.08 65.08 0 0 1 43.54-18.36Z" fill="#000"/><path d="M557 429.85c15.33-.23 30.4 6.15 41.39 16.75 9.87 9.5 15.83 22.19 17.7 35.7-14.9-2.86-30-3.76-45.12-2.5-6 .7-11.93 1.88-17.87 2.89-.9-3.26-1.74-6.35-3.55-9.25-5.97-9.96-19.33-15.24-30.34-11.14a25.88 25.88 0 0 0-15.95 14.9c-3.08 7.38-2.28 15.5 1.22 22.6l-5.74 2.9c-5.12-21.7 3.1-45.52 20.44-59.52 10.54-8.6 24.2-13.57 37.83-13.33Z" fill="#fff"/><path d="M411.45 452.57a55 55 0 0 1 27.77 32.17c3.17 9.5 3.14 19.25 1.59 29.04l-2.88 1.57a151.25 151.25 0 0 0-29.91-5.44c-17.9-1.13-36.17-1.69-54.05.02-6.9.17-13.47 2.03-20.42 1.58-.89-2.44-1.7-4.84-1.7-7.47-.18-10.31 2.22-20.81 7.45-29.76a55.03 55.03 0 0 1 72.15-21.7Z" fill="#000"/><path d="M397.24 453.61a49.57 49.57 0 0 1 27.52 16.64 49.91 49.91 0 0 1 11.07 38.62 83.07 83.07 0 0 0-12.33-3.02 232.53 232.53 0 0 0-37.65-2.38c-.06-3.82.07-7.4-1.47-10.98a23.17 23.17 0 0 0-18.35-14.5c-10.08-1.52-20.42 4.34-24.35 13.74-2.23 4.9-1.78 9.64-1.96 14.85-1.73-1.26-1.94-1.37-2-3.52-.53-12.06 4.07-24.34 11.93-33.45 11.5-13.5 30.27-19.84 47.6-16Z" fill="#fff"/></g><g transform="translate(-279 -322)"><path d="M456.01 380.37c2.26-.07 2.85 1.7 2.65 3.64-.5 4.68-.77 9.78-2.32 14.23-1.33.39-2.66.58-4.03.82-1.12-4.8 0-10.22.7-15.09.37-1.71.78-3.82 3-3.6ZM476.79 386.65c.03 3.21-.36 6.36-.67 9.55 41.69.52 83.32.38 125 .75 2.14.04 3.97.86 5.9 1.64-.6 1.48-.22 3.83-2.24 4.1-8.05 1.3-16.58.5-24.74.87-17.35.62-34.7 1-52.06 1.53-17.03.2-34 1.25-51.05 1.42-3.3.39-6.05-2.72-7.2-5.47.02-4.5 1.02-9.15 2.06-13.5 1.28-2.48 2.83-1.67 5-.9ZM439.84 392.18c-.1 4.87-.05 10.81-2.28 15.24-3.22 1.5-7.12 1.79-10.59 2.47-25.65 4.69-51.32 9.34-76.96 14.08-4.24.69-8.7 2.15-13 2.04-2.62-.48-3.32-3.75-.86-5 3.2-1.42 6.95-1.75 10.33-2.59 29.1-6.7 58.15-13.6 87.24-20.32.4-1.91.8-3.81 1.27-5.7 1.61-.21 3.23-.24 4.85-.23Z" fill="#000"/></g><g transform="translate(-279 -322)"><path d="M550 573.51c1.46 0 3.54-.33 4.63.86 1.79 1.55.73 4.5-1.6 4.72-5.3.8-10.73.62-16.06 1.3-4.86.63-9.72 1.27-14.57 1.92a72.83 72.83 0 0 1 6.07 20.52c1.1 9.46.5 18.83-4.44 27.2a27.94 27.94 0 0 1-18.97 13.18c-9.3 1.52-18.57-.3-27.06-4.22-13.14-6.16-23.89-15.8-32.58-27.32-6.65 4.89-13 10.1-18.5 16.27-1.57 1.58-3.5 3.91-5.73 1.87-1.86-1.74-.28-4.03 1.06-5.54 9.67-10.78 21.93-19.53 34.63-26.4 28.47-15.26 61.04-22.5 93.12-24.35Z" fill="#000"/><path d="M516.86 583.39c1.15 3.94 2.8 7.7 3.96 11.64 2.13 6.95 2.55 14.24 1.79 21.44-1.11 7.19-4.63 14.3-11.1 18.07-7.43 4.5-16.62 4-24.65 1.5-15.04-4.85-26.95-15.23-36.46-27.58a164.36 164.36 0 0 1 29.3-14.53c1.71 2.36 3.26 5.1 5.41 7.07 1.42 1.48 4.45.11 4.09-2-.39-2.39-2.78-4.37-3.81-6.57-.12-.47.13-.76.75-.88 9.98-3.5 20.34-6.12 30.72-8.16Z" fill="#EA869E"/></g><g transform="translate(-279 -322)"></g></g></svg>