<svg xmlns="http://www.w3.org/2000/svg" viewBox="0 0 400 400" fill="none" shape-rendering="auto"><desc>"Adventurer Neutral" by "Lisa Wischofsky", licensed under "CC BY 4.0". / Remix of the original. - Created with dicebear.com</desc><metadata xmlns:dc="http://purl.org/dc/elements/1.1/" xmlns:cc="http://creativecommons.org/ns#" xmlns:rdf="http://www.w3.org/1999/02/22-rdf-syntax-ns#"><rdf:RDF><cc:Work><dc:title>Adventurer Neutral</dc:title><dc:creator><cc:Agent rdf:about="https://www.instagram.com/lischi_art/"><dc:title>Lisa Wischofsky</dc:title></cc:Agent></dc:creator><dc:source>https://www.figma.com/community/file/1184595184137881796</dc:source><cc:license rdf:resource="https://creativecommons.org/licenses/by/4.0/" /></cc:Work></rdf:RDF></metadata><mask id="viewboxMask"><rect width="400" height="400" rx="0" ry="0" x="0" y="0" fill="#fff" /></mask><g mask="url(#viewboxMask)"><rect fill="#ecad80" width="400" height="400" x="0" y="0" /><g transform="translate(-279 -322)"><path d="M562.01 467.8c1.68 0 3.23.31 4.88.58-.28 2.28.34 4.36-2.64 4.8-9.4.76-18.83 1.45-28.25 2.06-4.32.2-8.78 1.16-13.1.84-1.94-.79-2.62-2-2.03-4.1 1.45-1.38 3.19-1.54 5.1-1.69 12.02-.64 24-1.86 36.04-2.5ZM396.33 481.31c1.23 1.24 2.2 1.91 2.08 3.85-1.42 2.52-4.9 2.05-7.38 2.36-8.05.21-16.06 1.68-24.09 1.71-2.7-.36-2.11-2.53-2.53-4.58 10.33-2.64 21.37-1.79 31.93-3.34ZM618.89 483.07c1.04.75 2.08 1.48 3.13 2.22a65.59 65.59 0 0 1-9.93 38.78 65.45 65.45 0 0 1-24.32 22.73c-14.52 7.96-32.32 9.86-48.26 5.44a65.36 65.36 0 0 1-35.32-24.4 63.91 63.91 0 0 1-12.38-33.97c2.1-3.32 5.74-3 9.17-3.26 30.68-2.1 61.35-4.13 92.02-6.22 8.7-.2 17.2-1.64 25.89-1.32Z" fill="#000"/><path d="M616.28 488.65c.74 20.78-11.03 41.27-28.85 51.8-11.82 6.93-25.88 9.98-39.46 7.75a59.72 59.72 0 0 1-35.27-18.9c-8.02-8.88-13.6-20.53-14.76-32.49 11.17-1.23 22.38-1.67 33.58-2.63.38 8.47 1.87 17.19 5.2 25.03 1.89 4.28 5.29 10.07 10.23 11.13 4.79.85 7.97-2.58 9.97-6.45 4.58-9.28 4-21.5 3.22-31.56 18.7-1.25 37.42-2.66 56.14-3.67Z" fill="#fff"/><path d="M415.01 499.71c8.1-.69 16.13-1.44 24.27-1.05.87.83 1.75 1.67 2.64 2.49.19 16-6.7 31.57-18.78 42.06a54.81 54.81 0 0 1-42.17 13.2 54.34 54.34 0 0 1-30.73-13.64 55.18 55.18 0 0 1-17.98-34.89c1.04-.88 2.19-2.68 3.63-2.82 13.04-1.6 26.05-1.69 39.11-2.95 13.35-.64 26.66-1.71 40-2.4Z" fill="#000"/><path d="M436.36 504.29c-.69 5.07-1.44 9.93-3.28 14.74a49.5 49.5 0 0 1-22.2 25.81 51 51 0 0 1-23.88 6.33 49.93 49.93 0 0 1-35.25-14.93 49.66 49.66 0 0 1-13.37-25.88 1021.4 1021.4 0 0 1 34.1-2.24c-.06 7.18.95 14.37 4.79 20.58 1.69 2.6 4.35 5.19 7.69 5 3.57-.14 6.11-3.3 7.5-6.28 2.85-6.64 2.88-13.67 2.25-20.74 13.86-.8 27.77-2.18 41.65-2.39Z" fill="#fff"/></g><g transform="translate(-279 -322)"><path d="M568.44 405.96c-.6-2.92-2.48-4.87-4.6-6.82-11.98-10.95-29.88-15.87-45.64-11.58-9.72 2.4-18.51 8.36-23.63 17.06-2.83 5.03-4.78 10.54-3.98 16.4.08.42.13.83.18 1.23.2 1.63.37 3 2.44 3.54 2.17.12 4.4-.29 6.54-.68l.31-.06 6.22-1.2c5.24-1 10.48-2 15.68-3.19a640.08 640.08 0 0 0 44.88-11.08c1.77-.25 1.7-1.62 1.63-3.02l-.03-.6ZM430.1 431.05c-.81-9.8-8.9-17.41-17.88-20.31a39.68 39.68 0 0 0-38.34 9.13c-4.45 4.18-8.39 9.97-9.12 16.14-.08 2.74 2.36 2.78 4.44 2.82.26 0 .52 0 .77.02 3.02-.08 6.05-.14 9.07-.2 9.34-.17 18.7-.35 27.98-1.3 2.4-.21 4.83-.38 7.24-.54 4.26-.3 8.52-.58 12.74-1.14 2.42.03 3.28-2.6 3.1-4.62Z" fill="#000"/></g><g transform="translate(-279 -322)"><path d="M521.18 567.25c1.55-.38 3.33-1 4.93-.74 2 .78 2.04 3 1.05 4.64-4.12 2.62-10 2.81-14.26 4.89 3.42 13.46 3.76 27.5 0 40.93-3.26 12.19-10.2 24.02-20.7 31.3a35.76 35.76 0 0 1-24.22 6.54c-11.52-1.1-21.7-8.19-28.53-17.28-9.5-12.6-13.35-27.92-13.48-43.53.34-5.62.98-11.21 2.11-16.73-2.4-.78-5.59-1.13-7.5-2.84-.56-1.23-.2-2.85-.25-4.18 4.52-.02 8.3 1.66 12.66 2.56 29.55 5.95 59.5 3.04 88.2-5.56Z" fill="#000"/><path d="M506.94 577.11c5.23 17.71 3.27 38.43-6.69 54.17-4.13 6.48-9.68 11.96-16.73 15.17a29.31 29.31 0 0 1-25.4-.56c-8.06-4.02-14.57-11.42-18.7-19.32-7.58-14.67-9.44-32-5.52-48.03 10.46 2.5 21.07 3.05 31.77 3.27-1 6.74-.96 13.39-1.18 20.18 0 1.9-.16 4.1.5 5.92 1.09 1.71 4.65 1.2 4.75-1.06.58-8.4-.13-16.75 1.5-25.13 12-.25 24-2.21 35.7-4.62Z" fill="#EA869E"/></g><g transform="translate(-279 -322)"><path d="M569 416.32c10.67-.28 21.35-.06 32.02-.26 13.97-.61 27.98-.37 41.98-.52 3.87.15 9-.18 12.21 2.31 2.36 1.63 2.22 5.59 2.35 8.14-.1 4.33-.28 9.38-2.3 13.3-5.08 1.98-11.45 1.25-16.85 1.9.43 12.27 1.67 24.57 1.31 36.84-.71 13.91-3.67 28-10.34 40.32-8.1 13.04-19.9 24.39-33.54 31.5-10.42 5.39-21.75 7.4-33.39 7.79-6.22.2-12.08.5-18.21-.84-9.48-2.04-18.88-4.45-26.96-10.06-11.14-7.58-19.27-18.77-25.4-30.6-6.6-13.57-10.15-29.24-13.27-43.94-.53-2.3-2.38-3.48-4.35-4.45-6.63-2.95-14.93-.5-18.8 5.6-.8 2.4-.9 5.14-1.16 7.65-.62 7.61-2.25 15.33-3.88 22.8-3.12 13.57-9 26.31-16.8 37.82-4.35 5.79-9.75 11.42-16.22 14.8-10.53 5.75-22.3 10.1-34.4 10.3-7.25-.2-14.16-.4-21.13-2.5-5.48-1.34-10.5-4.81-15.16-7.95-6.4-4.39-11.06-10.29-15.28-16.72a111.1 111.1 0 0 1-12.24-26.73c-2.84-9.45-5.24-18.8-5.19-28.73-4.55.66-9.39 2.23-14 1.95-4.35-.81-5.3-7.5-5.5-11.08.14-2.4-.15-6.76 2.7-7.68 21.6-9.82 44.44-17.06 67.54-22.42 17.03-3.7 34.73-8.24 52.27-6.65 11.18.94 22.83 3.92 31.72 11.06 3.2 2.41 5.43 6.83 9.38 7.6 7.08 1.82 14.45-1.24 20.89-3.97 3.63-9.99 10.02-17.33 19.06-22.81 6.3-3.84 13.67-6.15 20.7-8.28 16.76-4.03 33.14-4.65 50.24-5.5Z" fill="#000"/><path d="M307.1 478.16c1.2-1.2 3.4-.01 2.44 1.64-1.21 1.2-3.4 0-2.44-1.64Z" fill="#000"/><ellipse cx="605" cy="457.5" rx="14" ry="10.5" fill="#fff"/><ellipse cx="411" cy="476.11" rx="11" ry="8.11" fill="#fff"/></g></g></svg>