<svg xmlns="http://www.w3.org/2000/svg" viewBox="0 0 400 400" fill="none" shape-rendering="auto"><desc>"Adventurer Neutral" by "Lisa Wischofsky", licensed under "CC BY 4.0". / Remix of the original. - Created with dicebear.com</desc><metadata xmlns:dc="http://purl.org/dc/elements/1.1/" xmlns:cc="http://creativecommons.org/ns#" xmlns:rdf="http://www.w3.org/1999/02/22-rdf-syntax-ns#"><rdf:RDF><cc:Work><dc:title>Adventurer Neutral</dc:title><dc:creator><cc:Agent rdf:about="https://www.instagram.com/lischi_art/"><dc:title>Lisa Wischofsky</dc:title></cc:Agent></dc:creator><dc:source>https://www.figma.com/community/file/1184595184137881796</dc:source><cc:license rdf:resource="https://creativecommons.org/licenses/by/4.0/" /></cc:Work></rdf:RDF></metadata><mask id="viewboxMask"><rect width="400" height="400" rx="0" ry="0" x="0" y="0" fill="#fff" /></mask><g mask="url(#viewboxMask)"><rect fill="#f2d3b1" width="400" height="400" x="0" y="0" /><g transform="translate(-279 -322)"><path d="M558.2 453.21c11.47-1.62 23.68.14 34 5.5 7.61 3.93 14.3 10.28 18.11 18 3.35 6.67 3.82 14.64 2.11 21.82-2.1 8.03-7.22 15.16-13.75 20.2-14.96 11.75-36.54 14.35-54.2 7.75-8.43-3.17-16.54-8.89-21.4-16.55-2.8-4.73-5.22-10.36-5.36-15.93-.7-9.54 3.61-19.3 10.27-26.02 8.05-8.38 18.87-12.97 30.22-14.77Z" fill="#000"/><path d="M559.17 459.11c13.97-2.02 29.72 1.64 39.88 11.85 6.6 6.52 10.35 16.95 7.62 26.05-2.06 8.19-7.68 14.5-14.53 19.15-12.44 8.2-28.98 10.02-43.11 5.63-8.63-2.7-17.05-8.19-21.69-16.1-3.02-5-4.14-10.91-3.6-16.7.77-6.83 4.54-13.12 9.39-17.85 7.05-6.72 16.44-10.78 26.04-12.03Z" fill="#fff"/><path d="M369.48 468.71c17.62-2.69 37.91 3.42 47.71 19.13a30.7 30.7 0 0 1 1.93 29.15c-2.9 6.32-7.9 11.64-13.7 15.43-7.34 4.75-15.75 7.1-24.42 7.8-14.63.56-29.8-4.3-39.4-15.8-5.22-6.27-8.18-14.2-7.54-22.4.56-8.28 4.61-15.75 10.51-21.45 6.92-6.46 15.65-10.23 24.91-11.86Z" fill="#000"/><path d="M376.55 474.11c9.64-.35 19.56 2.27 27.37 8.02 5.14 3.82 9.44 9.18 11.19 15.41 1.61 6.2 1.04 12.92-2.15 18.54-4.72 8.62-13.66 14.22-22.97 16.7-13.7 3.72-30.16.72-40.8-8.98-6.28-5.66-10-13.74-9.23-22.26a27.3 27.3 0 0 1 6.85-14.72c7.34-8.2 18.86-12.64 29.74-12.7Z" fill="#fff"/><path d="M551.46 477.61c3.7-.8 7.51-.7 10.96.96 6.42 3.03 10.48 10.43 8.9 17.48-1.3 7.25-7.9 12.9-15.3 12.85-8.43.47-15.97-6.52-16.35-14.89a15.94 15.94 0 0 1 11.8-16.4Z" fill="#000"/><path d="M553.62 483.21c4-.67 7.83.6 10.2 3.96 3.05 4.06 2.27 9.86-1.37 13.27-4.4 3.95-11.88 3.34-15.16-1.77-4.01-5.83-.63-14.19 6.32-15.46Z" fill="#fff"/><path d="M618.7 484.19c1.7.32 3.64-.24 4.63 1.46 1.61 2.47 2.37 5.58 2.85 8.46 1.44 10.52-2.22 21.8-9.83 29.25-3.27 3.02-7.82 5.97-12.38 6.11-2.73.04-4.27-2.62-2.33-4.8 3.27-1.61 6.54-2.11 9.44-4.56 6.3-5.26 9.64-14.02 9.57-22.11 0-4.02-1.58-7.21-2.66-10.96l.71-2.84ZM380.44 488.46c4.44-.82 9.2.5 12.68 3.35 5.75 4.58 7.69 13.08 4.69 19.76-2.56 5.93-8.24 10.22-14.82 10.23-8.45.57-15.94-6.42-16.44-14.79a17.14 17.14 0 0 1 13.89-18.54Z" fill="#000"/><path d="M379.53 494.79c5.08-1.91 10.94.6 12.92 5.67 2.83 6.48-1.52 14.7-8.68 15.43-4.25.47-7.6-1.26-9.9-4.82-3.45-5.89-.8-13.89 5.66-16.28Z" fill="#fff"/><path d="M330.44 503.6c.44 4.06-1.4 7.43-1.67 11.39a19.33 19.33 0 0 0 7.3 15.89c2.43 1.9 5.11 2.82 7.77 4.29 1.95.85 1.84 2.03 1.58 3.92-1.5 1.78-3.3 1.46-5.3.8-7.29-2.71-13.56-8.6-15.96-16.08-2.04-6.12-1.77-13.6 1.36-19.29 1.26-1.87 3.04-.88 4.92-.92Z" fill="#000"/></g><g transform="translate(-279 -322)"><path d="M501.99 384.96c9.9.12 19.87 3.23 28.83 7.31 3.36 1.88 7.05 4 7.3 8.3-5.13-.87-10.13-2.07-15.37-2.3-11.6-.67-23.13 1.37-33.25 7.24-2.54 1.41-4.95 3.26-7.64 4.35-1.8.27-3.92-2-3.94-3.73-.18-5.81 1.95-11.92 6.53-15.7 5.03-4.23 11.15-5.3 17.54-5.47ZM414.03 402.61c5.81.15 10.93 5.3 12.51 10.64.8 2.63-.46 5.72-3.53 5.61-8.82.2-18.2.03-26.81 2.26-7.52 2-14.74 6.7-21.36 10.74-1.22.81-2.57.96-3.98 1.22.33-1.93.64-3.66 1.94-5.2a97.47 97.47 0 0 1 10.74-12.31c5.88-5.17 13-8.96 20.32-11.66a25.26 25.26 0 0 1 10.17-1.29Z" fill="#000"/></g><g transform="translate(-279 -322)"><path d="M476.98 628.88c10.2-.52 20.43 4.48 27.46 11.67 5.06 5.1 8.39 11.32 10.89 18 .52 3.48 2.26 6.4-1.37 8.77-8.33.15-16.63.8-24.96 1-12.3.95-24.72.47-36.92 1.94-1.96-1.87-2.34-3.75-2.6-6.38-.98-8.6 1.23-17.86 6.72-24.66a27.94 27.94 0 0 1 20.78-10.34Z" fill="#000"/><path d="M484.48 635.49c12.63 3.1 22.12 13.94 25.5 26.24-18.27.4-36.53 1.67-54.77 2.21-.7-8.6 1.23-17 7.57-23.16 5.82-5.68 13.94-7.02 21.7-5.29Z" fill="#8F2E45"/></g><g transform="translate(-279 -322)"></g></g></svg>