<svg xmlns="http://www.w3.org/2000/svg" viewBox="0 0 400 400" fill="none" shape-rendering="auto"><desc>"Adventurer Neutral" by "Lisa Wischofsky", licensed under "CC BY 4.0". / Remix of the original. - Created with dicebear.com</desc><metadata xmlns:dc="http://purl.org/dc/elements/1.1/" xmlns:cc="http://creativecommons.org/ns#" xmlns:rdf="http://www.w3.org/1999/02/22-rdf-syntax-ns#"><rdf:RDF><cc:Work><dc:title>Adventurer Neutral</dc:title><dc:creator><cc:Agent rdf:about="https://www.instagram.com/lischi_art/"><dc:title>Lisa Wischofsky</dc:title></cc:Agent></dc:creator><dc:source>https://www.figma.com/community/file/1184595184137881796</dc:source><cc:license rdf:resource="https://creativecommons.org/licenses/by/4.0/" /></cc:Work></rdf:RDF></metadata><mask id="viewboxMask"><rect width="400" height="400" rx="0" ry="0" x="0" y="0" fill="#fff" /></mask><g mask="url(#viewboxMask)"><rect fill="#ecad80" width="400" height="400" x="0" y="0" /><g transform="translate(-279 -322)"><path d="M554.99 424.09a65.3 65.3 0 0 1 43.19 14.7c9.2 7.44 16.2 17.65 20.32 28.7 2.1 5.57 2.58 11.14 3.64 16.93-1.32 1.48-1.69 3.34-4.05 3.02-7.04-.31-13.96-2.04-21.03-2.22-8.77-.1-17.38-.37-26.1.95-9.83 1.63-19.5 2.64-29.06 5.72a175.1 175.1 0 0 0-32.49 12.44c-3.35 1.62-6.46 3.76-9.88 5.22-2.08.77-4.42.35-5.29-1.92-2.28-7.19-2.82-15.19-2.45-22.69.94-16 8.12-31.4 19.67-42.5a65.08 65.08 0 0 1 43.54-18.36Z" fill="#000"/><path d="M557 429.85c15.33-.23 30.4 6.15 41.39 16.75 9.87 9.5 15.83 22.19 17.7 35.7-14.9-2.86-30-3.76-45.12-2.5-6 .7-11.93 1.88-17.87 2.89-.9-3.26-1.74-6.35-3.55-9.25-5.97-9.96-19.33-15.24-30.34-11.14a25.88 25.88 0 0 0-15.95 14.9c-3.08 7.38-2.28 15.5 1.22 22.6l-5.74 2.9c-5.12-21.7 3.1-45.52 20.44-59.52 10.54-8.6 24.2-13.57 37.83-13.33Z" fill="#fff"/><path d="M411.45 452.57a55 55 0 0 1 27.77 32.17c3.17 9.5 3.14 19.25 1.59 29.04l-2.88 1.57a151.25 151.25 0 0 0-29.91-5.44c-17.9-1.13-36.17-1.69-54.05.02-6.9.17-13.47 2.03-20.42 1.58-.89-2.44-1.7-4.84-1.7-7.47-.18-10.31 2.22-20.81 7.45-29.76a55.03 55.03 0 0 1 72.15-21.7Z" fill="#000"/><path d="M397.24 453.61a49.57 49.57 0 0 1 27.52 16.64 49.91 49.91 0 0 1 11.07 38.62 83.07 83.07 0 0 0-12.33-3.02 232.53 232.53 0 0 0-37.65-2.38c-.06-3.82.07-7.4-1.47-10.98a23.17 23.17 0 0 0-18.35-14.5c-10.08-1.52-20.42 4.34-24.35 13.74-2.23 4.9-1.78 9.64-1.96 14.85-1.73-1.26-1.94-1.37-2-3.52-.53-12.06 4.07-24.34 11.93-33.45 11.5-13.5 30.27-19.84 47.6-16Z" fill="#fff"/></g><g transform="translate(-279 -322)"><path d="M530.99 353.9c17.06 1.95 34 7.42 48.62 16.5 6.84 4.33 13.98 9.93 18.27 16.9.9 1.17 1.25 3.53-.22 4.34-1.19 1.18-2.85.5-4.15-.1-16.36-8.83-35.52-13.28-53.92-15.02-13.52-.79-28.3-.86-41.16 3.86-2.92 1.03-5.5 2.98-8.47 3.85-1.37.25-2.43-1.11-2.88-2.26-1.81-4.7-2.23-10.24.18-14.8 2.6-5.35 7.91-8.65 13.31-10.66 9.68-3.6 20.27-3.32 30.42-2.61ZM414.04 408.09c8.18 2.36 14.6 10.77 13.54 19.42-1.87.56-3.6 1-5.58.73-14.22-1.45-29.3 1.52-42.82 5.85-14.05 4.67-28.5 11.6-39.42 21.77-1.34 1.3-4.25 2.95-5.5.75-1.73-2.36.02-4.07 1.38-5.97 12.84-16.22 29.69-30.97 48.9-39.03 8.9-3.65 20.04-6.5 29.5-3.53Z" fill="#000"/></g><g transform="translate(-279 -322)"><path d="M480.96 561.69c4.71-.58 10.26.05 13.71 3.66 3.78 3.9 4.15 9.42 3.22 14.53-2.65 11.8-12.87 21.43-24.84 23.27-7.5 1.5-15.57-.3-22.15-4.05-5.15-2.9-8.86-7.64-11.08-13.06-1.31-3.29-1.62-7.23-.43-10.59 1.3-3.11 4.12-5 7.34-5.7 5.66-1.83 11.66.27 16.63 3.05 4.58-5.09 10.57-10.17 17.59-11.1Z" fill="#000"/><path d="M480.51 567.7c3.3-1.03 7.38-.57 10 1.78 2.06 2.03 2.11 5.89 1.71 8.56-1.84 9.78-10.28 17.74-20.07 19.32-6.52 1.3-13.19-.33-18.84-3.68-4.3-2.52-7.44-6.98-8.81-11.72-.7-2.45-.36-5.07 2.04-6.38 2.59-1.08 5.76-1.02 8.48-.5 3.48.7 5.8 2.92 8.97 4.33 1.93-.09 2.62-1.39 3.81-2.64 3.32-3.94 7.69-7.62 12.7-9.07Z" fill="#8F2E45"/></g><g transform="translate(-279 -322)"></g></g></svg>