<svg xmlns="http://www.w3.org/2000/svg" viewBox="0 0 400 400" fill="none" shape-rendering="auto"><desc>"Adventurer Neutral" by "Lisa Wischofsky", licensed under "CC BY 4.0". / Remix of the original. - Created with dicebear.com</desc><metadata xmlns:dc="http://purl.org/dc/elements/1.1/" xmlns:cc="http://creativecommons.org/ns#" xmlns:rdf="http://www.w3.org/1999/02/22-rdf-syntax-ns#"><rdf:RDF><cc:Work><dc:title>Adventurer Neutral</dc:title><dc:creator><cc:Agent rdf:about="https://www.instagram.com/lischi_art/"><dc:title>Lisa Wischofsky</dc:title></cc:Agent></dc:creator><dc:source>https://www.figma.com/community/file/1184595184137881796</dc:source><cc:license rdf:resource="https://creativecommons.org/licenses/by/4.0/" /></cc:Work></rdf:RDF></metadata><mask id="viewboxMask"><rect width="400" height="400" rx="0" ry="0" x="0" y="0" fill="#fff" /></mask><g mask="url(#viewboxMask)"><rect fill="#9e5622" width="400" height="400" x="0" y="0" /><g transform="translate(-279 -322)"><path d="M556 424.07a65.28 65.28 0 0 1 38.21 11.72 66.38 66.38 0 0 1 25.55 35.69c2.03 8.44 3.26 17.76 1.73 26.36-.34 2.67-3.16 3.58-5.48 3.72-22.92 1.12-45.4 3.72-68.02 6.37-13.15.92-26.15 2.81-39.22 4.54-4.57.55-8.58 1.7-13.07-.02-4.7-13.26-5.45-27.76-1.52-41.31a65.08 65.08 0 0 1 25.49-35.44A64.79 64.79 0 0 1 556 424.07Z" fill="#000"/><path d="M566.19 430.48a59.9 59.9 0 0 1 38.69 23.59c7.72 10.54 11.98 23.86 11.5 36.93-.17 1.36.17 3.47-.68 4.57-4.17.7-8.5.77-12.7 1.15-18.38 1.14-36.61 3.35-54.88 5.53 1.29-3.37 2.5-6.57 2.63-10.23.4-9.56-5.03-18.9-13.67-23.1-7.93-4.11-18.77-3.17-25.87 2.29-6.37 4.73-10.35 12.82-9.79 20.8 0 6 2.59 11.22 6.37 15.73-2.44.23-4.87.5-7.3.75a58.83 58.83 0 0 1 1.85-43.11 59.17 59.17 0 0 1 32.69-31.45c9.91-4.07 20.61-4.84 31.16-3.45Z" fill="#fff"/><path d="M415.92 455.07a54.98 54.98 0 0 1 22.55 27.5 55.8 55.8 0 0 1 1.3 34.35c-3.95 1.23-7.7.76-11.77.75-25.4-.28-50.64-.3-76 1.43-5.57-.31-13 1.8-17.82-1.36-1.63-6.9-2.98-13.6-2.05-20.72a55.18 55.18 0 0 1 14.86-33.04 55.09 55.09 0 0 1 32-16.6 55.24 55.24 0 0 1 36.93 7.69Z" fill="#000"/><path d="M410.45 458.52c18.96 10.1 29.6 32.88 24.63 53.87-1.89.03-3.78.06-5.67.13 2.51-4.85 3.8-10.1 2.83-15.56-1.25-8.23-7.5-15.16-15.4-17.62a23.63 23.63 0 0 0-14.04.47c-8.31 3.06-14.47 11.22-14.46 20.19-.29 4.37 1.04 8.24 2.82 12.14-15.4.07-30.77 1.03-46.16 1.93-1.75-.18-5.82.57-6.13-1.9-4.43-18.7 3.54-39.04 19.11-50.2 15.1-11.13 36.05-12.56 52.48-3.45Z" fill="#fff"/></g><g transform="translate(-279 -322)"><path d="M523.24 384.36c6.17-.42 13.1-.61 18.45 2.95 3.68 2.44 5.4 6.35 4.48 10.74-1.55 6.16-6.62 10.92-11.61 14.5a67.57 67.57 0 0 1-30.57 11.53c-5.61.53-12.5.43-17.47-2.55-3.63-2.13-5.9-6.12-5.2-10.36 1.02-5.75 5.5-10.5 9.94-13.96 9.19-7.03 20.55-11.34 31.98-12.85ZM392.22 401.23c9.1-.36 18.3.5 26.3 5.24 3.86 2.26 7.35 5.89 7.9 10.49.34 4.21-1.96 7.8-5.19 10.27-4.52 3.55-9.87 5-15.43 6-9.95 1-20.55.31-29.48-4.6-3.87-2.28-7.88-5.84-8.47-10.56-.73-4.27 2.02-8.47 5.39-10.84 5.4-3.87 12.43-5.69 18.98-6Z" fill="#000"/></g><g transform="translate(-279 -322)"><path d="M525.03 563.67c.41.78.8 1.57 1.14 2.37.47 2.66-1.95 3.31-3.8 4.34-4 1.77-8.06 3.4-12.13 4.98-17.66 6.32-35.39 11.11-54.24 11.94-6.5.5-12.94.62-19.44.04-4.9-.57-10.15-.63-14.87-2.03-2.35-.88-2.73-3.93-.4-5.07 2.68-.12 5.48.83 8.18 1.02 7.2.89 14.3.61 21.54.61 22.5-.76 45.02-6.79 65.7-15.48 2.76-1.19 5.22-2.6 8.32-2.72Z" fill="#000"/></g><g transform="translate(-279 -322)"></g></g></svg>