<svg xmlns="http://www.w3.org/2000/svg" viewBox="0 0 400 400" fill="none" shape-rendering="auto"><desc>"Adventurer Neutral" by "Lisa Wischofsky", licensed under "CC BY 4.0". / Remix of the original. - Created with dicebear.com</desc><metadata xmlns:dc="http://purl.org/dc/elements/1.1/" xmlns:cc="http://creativecommons.org/ns#" xmlns:rdf="http://www.w3.org/1999/02/22-rdf-syntax-ns#"><rdf:RDF><cc:Work><dc:title>Adventurer Neutral</dc:title><dc:creator><cc:Agent rdf:about="https://www.instagram.com/lischi_art/"><dc:title>Lisa Wischofsky</dc:title></cc:Agent></dc:creator><dc:source>https://www.figma.com/community/file/1184595184137881796</dc:source><cc:license rdf:resource="https://creativecommons.org/licenses/by/4.0/" /></cc:Work></rdf:RDF></metadata><mask id="viewboxMask"><rect width="400" height="400" rx="0" ry="0" x="0" y="0" fill="#fff" /></mask><g mask="url(#viewboxMask)"><rect fill="#f2d3b1" width="400" height="400" x="0" y="0" /><g transform="translate(-279 -322)"><path d="M540.5 447.73c18.9-2.42 39.63-.58 56.95 7.8 8.55 4.17 16.74 10.3 21.22 18.9 3.9 7.33 3.91 16.75-.16 24.02-4.22 8.05-12 14.1-19.93 18.24-13.55 7.02-29.4 9.83-44.57 9.65-12.04.02-23.93-1.81-35.2-6.11-8.98-3.47-17.66-8.68-23.75-16.26-4.84-6.12-7.63-14.13-5.89-21.93 1.84-8.56 7.5-15.36 14.4-20.47 10.64-7.84 23.95-11.98 36.92-13.84Z" fill="#000"/><path d="M546.98 452.71c8.4-.27 17.24-.58 25.5 1.08 10.6 1.7 21.45 5.3 30.3 11.45 5.5 3.95 10.43 9.09 12.35 15.73 2.02 6.8-.27 14.13-4.75 19.45-6.1 7.46-15.56 12.38-24.55 15.43-9.89 3.26-20.41 5.08-30.83 4.84a92.86 92.86 0 0 1-30.23-4.45c-9.19-3.05-18.45-7.69-24.78-15.23-4.3-5.04-6.9-12.45-4.86-18.97 1.5-6.55 6.69-12.06 11.94-15.96 11.4-8.26 26.07-12.06 39.91-13.37Z" fill="#fff"/><path d="M373.48 460.76c16.32-2.29 34.23-.9 49.1 6.64 7.74 4 15.42 10.43 17.96 19.07 2.33 7.1-.17 14.74-4.65 20.42-6.29 7.75-15.28 12.42-24.65 15.4a89.74 89.74 0 0 1-45.3 1.76c-9.87-2.25-20-6.47-27.15-13.89-4.71-4.75-7.92-11.31-7.35-18.12.54-7.22 4.98-13.65 10.43-18.18 8.81-7.42 20.37-11.3 31.6-13.11Z" fill="#000"/><path d="M371.5 466.92c15.62-3 32.92-1.77 47.43 5.05 6.36 3.02 13.43 8.26 15.74 15.2 2.08 5.63.36 11.7-3.32 16.23-4.64 5.76-11.76 9.8-18.6 12.35a80.56 80.56 0 0 1-39 3.9c-9.28-1.29-18.97-4.28-26.66-9.78-5.23-3.9-9.63-9.03-9.9-15.85-.2-6.85 4.16-12.52 9.28-16.58 7.13-5.5 16.25-8.8 25.03-10.52Z" fill="#fff"/><path d="M592.23 469.2c2.12-1.59 4.65-.32 5.95 1.66 2.4 4 2.38 9.6 2.8 14.14.2 4.39.48 9.64-1.23 13.75-1.98 4.07-7.4 1.34-8.7-1.8-2.28-6.35-2.19-13.75-1.68-20.4.42-2.36.64-5.94 2.86-7.35ZM416.85 476.07c2.18.53 2.81 3.77 3.31 5.63.82 5.03 1.38 10.25 1.06 15.34-.33 2.54-.69 5.69-3.12 7.13-2.07 1.29-4.27-.03-5.35-1.93-2.07-3.84-2.16-8.98-2.29-13.24.06-4.36-.1-8.73 2.24-12.56 1.44-.39 2.65-.96 4.15-.37Z" fill="#000"/></g><g transform="translate(-279 -322)"><path d="M501.99 384.96c9.9.12 19.87 3.23 28.83 7.31 3.36 1.88 7.05 4 7.3 8.3-5.13-.87-10.13-2.07-15.37-2.3-11.6-.67-23.13 1.37-33.25 7.24-2.54 1.41-4.95 3.26-7.64 4.35-1.8.27-3.92-2-3.94-3.73-.18-5.81 1.95-11.92 6.53-15.7 5.03-4.23 11.15-5.3 17.54-5.47ZM414.03 402.61c5.81.15 10.93 5.3 12.51 10.64.8 2.63-.46 5.72-3.53 5.61-8.82.2-18.2.03-26.81 2.26-7.52 2-14.74 6.7-21.36 10.74-1.22.81-2.57.96-3.98 1.22.33-1.93.64-3.66 1.94-5.2a97.47 97.47 0 0 1 10.74-12.31c5.88-5.17 13-8.96 20.32-11.66a25.26 25.26 0 0 1 10.17-1.29Z" fill="#000"/></g><g transform="translate(-279 -322)"><path d="M534.29 562.56c7.92 1.16 15.41 4.36 21.23 9.92 8.1 7.57 12.12 18.53 11.86 29.52.34 9.78-2.38 19.12-6.68 27.8a82.54 82.54 0 0 1-31.98 33.94c-11.83 6.96-25.1 10.44-38.72 11.36-30.63 1.61-61.2-11.84-82.09-34.04-6.37-8.12-11.85-18.46-11.45-29.06a24.8 24.8 0 0 1 10.45-20.16c6.92-4.97 14.77-6.31 23.1-6.8 14.2.16 27.8 4.33 40.17 11.13 8.52-12.59 20-22.9 34.03-28.96a56.4 56.4 0 0 1 30.09-4.64Z" fill="#000"/><path d="M533.47 568.33c9.24 1.28 17.97 6.24 22.9 14.3 5.96 9.6 6.65 21.04 3.8 31.79-4.04-.55-7.89-.69-11.96-.2-10.83.62-21.72 3.37-31.95 6.96 1.4-7.49 2.53-16.65-.57-23.85-1.7-3.84-5.4-6.2-9.58-4.33-6.58 3.12-10.3 11.89-13.02 18.22-4.75-1.63-11.32-3.78-16.06-1.23-3.89 2.19-3.78 6.53-2.42 10.26 2.56 6.21 7.7 11.08 12.64 15.44-12.05 7.9-22.81 17.29-31.17 29.09a103.78 103.78 0 0 1-40-23.82c-6.74-6.44-12-15.15-13.62-24.38-1.13-6.35.66-13.23 5.31-17.81 4.47-4.6 11-6.66 17.2-7.5 11.8-1.52 24.47 1.81 35.25 6.5 3.75 1.52 7.1 3.83 10.78 5.43 2.67.3 3.7-3.41 5.1-5.15 9.05-13.35 22.94-24.15 38.64-28.36 5.96-1.82 12.57-1.87 18.73-1.36Z" fill="#8F2E45"/><path d="M508.97 597.86c2.64 2.37 2.74 6.8 2.88 10.12-.08 10.9-3.14 21.9-7.97 31.65-4-2.1-7.93-4.17-11.35-7.18-4.32-3.77-9.1-7.97-11.95-13-.89-1.46-.92-3-1.16-4.64 5.16-.73 9.19 1.01 13.81 2.87 2.79 1 3.86-1.4 4.96-3.44 2.44-5.54 5.13-13.33 10.78-16.38Z" fill="#D32020"/><path d="M558.62 619.94a70.8 70.8 0 0 1-11 19.63c-3.78 4.78-8.56 8.9-13.02 13.05-9.94 8.14-22.52 13.35-35.12 15.57-12.5 1.97-25.18 1.2-37.5-1.56 8.1-11.13 18.64-19.92 30.29-27.15 3.76 2.33 7.58 5.16 11.76 6.65 1.4.62 2.77-.42 3.56-1.5 3.17-4.9 4.87-10.03 6.78-15.43.38-1.43 1.62-1.55 2.8-2.1 12.98-4.74 27.57-8.13 41.45-7.16Z" fill="#EA869E"/></g><g transform="translate(-279 -322)"></g></g></svg>