<svg xmlns="http://www.w3.org/2000/svg" viewBox="0 0 400 400" fill="none" shape-rendering="auto"><desc>"Adventurer Neutral" by "Lisa Wischofsky", licensed under "CC BY 4.0". / Remix of the original. - Created with dicebear.com</desc><metadata xmlns:dc="http://purl.org/dc/elements/1.1/" xmlns:cc="http://creativecommons.org/ns#" xmlns:rdf="http://www.w3.org/1999/02/22-rdf-syntax-ns#"><rdf:RDF><cc:Work><dc:title>Adventurer Neutral</dc:title><dc:creator><cc:Agent rdf:about="https://www.instagram.com/lischi_art/"><dc:title>Lisa Wischofsky</dc:title></cc:Agent></dc:creator><dc:source>https://www.figma.com/community/file/1184595184137881796</dc:source><cc:license rdf:resource="https://creativecommons.org/licenses/by/4.0/" /></cc:Work></rdf:RDF></metadata><mask id="viewboxMask"><rect width="400" height="400" rx="0" ry="0" x="0" y="0" fill="#fff" /></mask><g mask="url(#viewboxMask)"><rect fill="#f2d3b1" width="400" height="400" x="0" y="0" /><g transform="translate(-279 -322)"><path d="M551.26 424.28c22.14-1.95 44.44 7.9 57.71 25.75a66.1 66.1 0 0 1 13.2 39.97c-.27 12.75-4.02 25.34-11.26 35.89-8.84 13.1-22.73 23-38.11 26.7a65.2 65.2 0 0 1-73.29-32.14c-7.12-12.81-9.26-27.78-6.96-42.2a65.29 65.29 0 0 1 58.72-53.98Z" fill="#000"/><path d="M549.27 430.26a59.62 59.62 0 0 1 44.29 12.15c14.44 11.16 23.28 29.33 22.8 47.6.05 22.95-14.44 44.84-35.55 53.82-10.6 4.63-22.39 6.3-33.8 4.22a59.6 59.6 0 0 1-40.36-26.68 61.43 61.43 0 0 1-9.37-29.31 60.42 60.42 0 0 1 13.41-40.36 59.52 59.52 0 0 1 38.58-21.43Z" fill="#fff"/><path d="M381.25 447.09a54.98 54.98 0 0 1 58.67 39.98 55 55 0 0 1-26.76 63.08 54.6 54.6 0 0 1-33.18 6.15c-15.78-1.82-30.34-11-39-24.28-5.54-8.32-8.46-18.03-9.11-27.97-.31-12.55 3.4-25.11 11-35.17a55.12 55.12 0 0 1 38.38-21.8Z" fill="#000"/><path d="M378.26 453.29a49.1 49.1 0 0 1 32.85 5.6c17.73 9.8 28.17 31.01 24.42 51.02A49.54 49.54 0 0 1 391 550.94c-20.15 1.85-40.17-9.84-48.64-28.18a49.26 49.26 0 0 1 5.04-50.33 49.4 49.4 0 0 1 30.86-19.14Z" fill="#fff"/><path d="M526.47 467.49c12.02-2.86 24.89 4.24 29.36 15.65 2.2 6 2.32 12.7-.08 18.66a25.56 25.56 0 0 1-19.7 15.97 25.68 25.68 0 0 1-22.47-7.35 25.7 25.7 0 0 1-5.46-27.34 25.5 25.5 0 0 1 18.35-15.59ZM398.26 478.35c12.27-2.56 24.75 5.81 27.12 18.08.66 5.63.55 11.35-2.68 16.22-4.79 8-14.36 12.76-23.63 11.14-10.66-1.7-19-10.97-19.33-21.79a23.04 23.04 0 0 1 18.52-23.65Z" fill="#000"/></g><g transform="translate(-279 -322)"><path d="M545.03 378.5c24.7.94 48.04 8.97 69.45 21 2.26 1.31 4.92 2.48 6.79 4.32 1.3 2.39-.38 5.13-3.2 4.19-16.58-6.2-33.56-9.63-51.06-12.02-20.3-2.34-39.92-3.68-60.2-.13-3.2.44-6.87 2.16-10.08 1.59-2.66-1.69-1.2-6.1 1.29-7.37 13.63-9.33 30.79-12.1 47-11.58ZM407.99 396.92c3.5.64 6.6 1.92 9.63 3.78-.15 1.2-.26 2.4-.33 3.62-2.7.74-5.46 1.12-8.24 1.34-13.17 1.15-26.45 5.1-38.81 9.69-12.23 4.75-24.78 10.64-35.19 18.7-2.82 2.04-4.13 4.83-8.08 4.48-.5-.9-1-1.79-1.51-2.67.9-1.6 1.68-3.17 2.76-4.64 9.55-13.17 23.64-23.22 38.6-29.35 12.7-5.15 27.62-8.05 41.17-4.95Z" fill="#000"/></g><g transform="translate(-279 -322)"><path d="M397.16 574.5c18.25-.16 37.53-.27 55.83-.38 15.65-.52 31.34-.22 47-.46 3.82-.04 7.34-.2 10.9 1.4 4.25 1.92 7.85 6.05 7.62 10.93.36 6.4-5.56 10.94-11.5 11.3-33 .13-66 .4-99 .56-4.38-.1-8.12 1-12.36-.48l-.82-2.29c1.66-5.65 2.44-11.14-.14-16.68-1.03-2.03.23-3.9 2.47-3.9Z" fill="#000"/><path d="M510.49 581.58c2.16 1.83 3.27 4.85 1.35 7.29-2.42 3.37-7.56 2.6-11.15 2.54-.04-4-.07-8-.08-12.02 3.35.28 7.2-.21 9.88 2.2ZM401.71 580.18l5.03-.02c.16 4.03.22 8.05.15 12.1h-5.12c.41-4.08.45-8-.06-12.08ZM412.52 580.16c4.52-.07 9.04-.06 13.57-.04.12 4 .23 8 .27 12-4.4.07-8.8.08-13.2.08-.22-4.02-.4-8.03-.64-12.04ZM432.14 579.88c6.32-.04 12.64-.05 18.96-.1.07 4 .1 8.02.1 12.03-6.34-.07-12.65.3-18.97.24-.13-4.06-.17-8.1-.09-12.17ZM456.8 579.78c6.23-.08 12.46-.06 18.7-.14.12 4 .24 8.03.3 12.04-6.2.13-12.4.03-18.6.18-.3-4.03-.4-8.05-.4-12.08ZM481.4 579.5c4.47.17 8.95.07 13.43.03.03 4 .06 8.03.01 12.05-4.43 0-8.85.13-13.28 0-.05-4.04-.29-8.05-.17-12.08Z" fill="#fff"/></g><g transform="translate(-279 -322)"></g></g></svg>