<svg xmlns="http://www.w3.org/2000/svg" viewBox="0 0 400 400" fill="none" shape-rendering="auto"><desc>"Adventurer Neutral" by "Lisa Wischofsky", licensed under "CC BY 4.0". / Remix of the original. - Created with dicebear.com</desc><metadata xmlns:dc="http://purl.org/dc/elements/1.1/" xmlns:cc="http://creativecommons.org/ns#" xmlns:rdf="http://www.w3.org/1999/02/22-rdf-syntax-ns#"><rdf:RDF><cc:Work><dc:title>Adventurer Neutral</dc:title><dc:creator><cc:Agent rdf:about="https://www.instagram.com/lischi_art/"><dc:title>Lisa Wischofsky</dc:title></cc:Agent></dc:creator><dc:source>https://www.figma.com/community/file/1184595184137881796</dc:source><cc:license rdf:resource="https://creativecommons.org/licenses/by/4.0/" /></cc:Work></rdf:RDF></metadata><mask id="viewboxMask"><rect width="400" height="400" rx="0" ry="0" x="0" y="0" fill="#fff" /></mask><g mask="url(#viewboxMask)"><rect fill="#9e5622" width="400" height="400" x="0" y="0" /><g transform="translate(-279 -322)"><path d="M587.37 431.61a65.1 65.1 0 0 1 27.94 28.7c5.58-3.44 11.26-6.7 16.83-10.18 1.56-.93 3.14-1.94 4.89-2.46 1.93.56 2.77 1.31 2.72 3.44-.47 1.3-1.75 2-2.83 2.76-6.46 3.95-13.07 7.67-19.41 11.81 6.07 14.16 5.97 31.18.8 45.61a65.5 65.5 0 0 1-29.9 35.15 65.13 65.13 0 0 1-43.58 7 65.15 65.15 0 0 1-43.5-29.87 63.26 63.26 0 0 1-9.64-33.57 64.44 64.44 0 0 1 16.82-44.5c9.47-10.43 22.53-17.96 36.46-20.3a65.09 65.09 0 0 1 42.4 6.41Z" fill="#000"/><path d="M549.2 430.27c14.66-1.79 29.3 1.6 41.46 10.02a59.1 59.1 0 0 1 23.46 32.72 59.16 59.16 0 0 1-3.06 40.93c-6.2 13.86-18.05 25.26-32.25 30.69a57.97 57.97 0 0 1-31.8 3.4 59.6 59.6 0 0 1-40.36-26.66 61.47 61.47 0 0 1-9.37-29.35 60.43 60.43 0 0 1 13.41-40.34 59.53 59.53 0 0 1 38.51-21.41Z" fill="#fff"/><path d="M414.7 454.33a54.92 54.92 0 0 1 24.53 30.46c2.68 8.02 3.17 16.86 2.07 25.2a54.85 54.85 0 0 1-61.29 46.3c-15.79-1.8-30.36-10.98-39.03-24.27-5.54-8.33-8.47-18.05-9.1-28-.32-7.07 1.17-13.62 2.92-20.39a238.5 238.5 0 0 1-12.8-8.6c-1.7-1.23-1.84-2.14-1.54-4.17 1.3-1.26 2.74-1.6 4.35-.65 4.2 2.57 8.15 5.53 12.25 8.24 6.7-14.02 19.04-24.86 33.97-29.29a55.12 55.12 0 0 1 43.66 5.17Z" fill="#000"/><path d="M378.2 453.3c18.68-3.52 38.38 4.7 49.14 20.33 7.5 10.77 10.85 24.96 7.88 37.84a48.94 48.94 0 0 1-14.57 26.2A49.55 49.55 0 0 1 391 550.94c-20.13 1.85-40.14-9.82-48.62-28.14a49.3 49.3 0 0 1 35.82-69.5Z" fill="#fff"/><path d="M526.47 467.49c12-2.85 24.87 4.22 29.35 15.63a26.1 26.1 0 0 1-.08 18.72 25.64 25.64 0 0 1-41.14 9.56 25.7 25.7 0 0 1-6.76-27.6 25.54 25.54 0 0 1 18.63-16.31ZM398.22 478.36a23.17 23.17 0 0 1 24.44 11c3.46 5.59 3.67 12.26 2.25 18.53a23.78 23.78 0 0 1-15.87 15.27c-7.51 2.4-16.26.06-21.98-5.24-7.35-6.8-9.5-18-5.05-27a23 23 0 0 1 16.21-12.56Z" fill="#000"/></g><g transform="translate(-279 -322)"><path d="M523.24 384.36c6.17-.42 13.1-.61 18.45 2.95 3.68 2.44 5.4 6.35 4.48 10.74-1.55 6.16-6.62 10.92-11.61 14.5a67.57 67.57 0 0 1-30.57 11.53c-5.61.53-12.5.43-17.47-2.55-3.63-2.13-5.9-6.12-5.2-10.36 1.02-5.75 5.5-10.5 9.94-13.96 9.19-7.03 20.55-11.34 31.98-12.85ZM392.22 401.23c9.1-.36 18.3.5 26.3 5.24 3.86 2.26 7.35 5.89 7.9 10.49.34 4.21-1.96 7.8-5.19 10.27-4.52 3.55-9.87 5-15.43 6-9.95 1-20.55.31-29.48-4.6-3.87-2.28-7.88-5.84-8.47-10.56-.73-4.27 2.02-8.47 5.39-10.84 5.4-3.87 12.43-5.69 18.98-6Z" fill="#000"/></g><g transform="translate(-279 -322)"><path d="M550 573.51c1.46 0 3.54-.33 4.63.86 1.79 1.55.73 4.5-1.6 4.72-5.3.8-10.73.62-16.06 1.3-4.86.63-9.72 1.27-14.57 1.92a72.83 72.83 0 0 1 6.07 20.52c1.1 9.46.5 18.83-4.44 27.2a27.94 27.94 0 0 1-18.97 13.18c-9.3 1.52-18.57-.3-27.06-4.22-13.14-6.16-23.89-15.8-32.58-27.32-6.65 4.89-13 10.1-18.5 16.27-1.57 1.58-3.5 3.91-5.73 1.87-1.86-1.74-.28-4.03 1.06-5.54 9.67-10.78 21.93-19.53 34.63-26.4 28.47-15.26 61.04-22.5 93.12-24.35Z" fill="#000"/><path d="M516.86 583.39c1.15 3.94 2.8 7.7 3.96 11.64 2.13 6.95 2.55 14.24 1.79 21.44-1.11 7.19-4.63 14.3-11.1 18.07-7.43 4.5-16.62 4-24.65 1.5-15.04-4.85-26.95-15.23-36.46-27.58a164.36 164.36 0 0 1 29.3-14.53c1.71 2.36 3.26 5.1 5.41 7.07 1.42 1.48 4.45.11 4.09-2-.39-2.39-2.78-4.37-3.81-6.57-.12-.47.13-.76.75-.88 9.98-3.5 20.34-6.12 30.72-8.16Z" fill="#EA869E"/></g><g transform="translate(-279 -322)"></g></g></svg>