<svg xmlns="http://www.w3.org/2000/svg" viewBox="0 0 400 400" fill="none" shape-rendering="auto"><desc>"Adventurer Neutral" by "Lisa Wischofsky", licensed under "CC BY 4.0". / Remix of the original. - Created with dicebear.com</desc><metadata xmlns:dc="http://purl.org/dc/elements/1.1/" xmlns:cc="http://creativecommons.org/ns#" xmlns:rdf="http://www.w3.org/1999/02/22-rdf-syntax-ns#"><rdf:RDF><cc:Work><dc:title>Adventurer Neutral</dc:title><dc:creator><cc:Agent rdf:about="https://www.instagram.com/lischi_art/"><dc:title>Lisa Wischofsky</dc:title></cc:Agent></dc:creator><dc:source>https://www.figma.com/community/file/1184595184137881796</dc:source><cc:license rdf:resource="https://creativecommons.org/licenses/by/4.0/" /></cc:Work></rdf:RDF></metadata><mask id="viewboxMask"><rect width="400" height="400" rx="0" ry="0" x="0" y="0" fill="#fff" /></mask><g mask="url(#viewboxMask)"><rect fill="#f2d3b1" width="400" height="400" x="0" y="0" /><g transform="translate(-279 -322)"><path d="M589.95 433.05c11.85 6.92 21.04 17.5 26.7 29.97 5.94-3.13 11.68-6.68 17.7-9.63 1.78-.95 4.39.55 3.97 2.62.2 1.48-2.02 2.5-3.06 3.23-5.45 3-10.88 6.04-16.34 9.03 1.7 6.87 3.23 13.6 3.24 20.73-.06 12.85-3.69 25.61-10.87 36.3a65.88 65.88 0 0 1-31.79 25.28 65.87 65.87 0 0 1-38.5 2.03 65.1 65.1 0 0 1-40-29.6 63.2 63.2 0 0 1-9.31-33 64.44 64.44 0 0 1 15.41-42.92c9.58-11.27 23.24-19.42 37.87-21.9a65.18 65.18 0 0 1 44.98 7.86Z" fill="#000"/><path d="M549.2 430.27a59.7 59.7 0 0 1 44.36 12.14c14.46 11.19 23.27 29.3 22.81 47.6.02 22.44-13.8 43.89-34.2 53.21-10.96 5.08-23.24 7-35.17 4.83a59.56 59.56 0 0 1-40.74-27.3 61.53 61.53 0 0 1-8.98-28.72 60.36 60.36 0 0 1 13.88-40.9 59.51 59.51 0 0 1 38.04-20.85Z" fill="#fff"/><path d="M390.01 446.91a55.03 55.03 0 0 1 34.43 14.65c10.09 9.4 16.54 22.67 17.3 36.47a54.58 54.58 0 0 1-8.02 32.68 54.92 54.92 0 0 1-36.73 25.15 54.94 54.94 0 0 1-63.71-42.04c-2.36-9.4-1.56-18.93 1.03-28.19a605.7 605.7 0 0 0-11.32-4.5c-1.9-.78-4-1.44-5.35-3.08-.4-2.4.76-3.92 3.2-3.62 5.21 1.25 10 4.2 15.18 5.57 1.39-1.65 2.24-3.81 3.31-5.68 10.02-17.81 30.31-28.73 50.69-27.4Z" fill="#000"/><path d="M376.5 453.66c18.63-4.25 38.76 3.44 50 18.81a50.84 50.84 0 0 1 9.74 26.52c.67 13.61-4.44 27.48-14.06 37.18A49.44 49.44 0 0 1 392 550.83c-19.94 2.3-40.08-8.85-49.01-26.78a49.3 49.3 0 0 1 2.37-48.68 49.32 49.32 0 0 1 31.15-21.7Z" fill="#fff"/><path d="M578.28 465.43c6.24-.76 12.7.82 17.74 4.57 6.29 4.65 10.27 12.14 10.18 20a27.74 27.74 0 0 1-4.57 13.63c-4.1 6.13-11.27 10.06-18.6 10.54-8.2.5-16.42-3.28-21.25-9.97-6.02-7.97-6.24-19.8-.63-28.03a24.74 24.74 0 0 1 17.13-10.74ZM408.45 478.49c7.22-.86 14.8 2 19.61 7.47A21.98 21.98 0 0 1 433.8 502c.04 12-10.69 22.79-22.8 22.28-12.1.1-22.88-10.05-22.87-22.26-.7-11.81 8.67-22.32 20.32-23.53Z" fill="#000"/></g><g transform="translate(-279 -322)"><path d="M614 406.99c-24.74-23-58.3-35.43-92-35.08-8.9.26-17.67 1.52-26.42 3.12-1.5 3.24-2.51 6.6-3.52 9.98-.37 1.22-.73 2.44-1.12 3.66l-.13-1.4a170 170 0 0 0-1.31-11.32l-3.23-1.56c-.21.37-.5.74-.8 1.12-.6.76-1.23 1.55-1.26 2.44-.1 3.74.3 7.48.71 11.22.3 2.78.6 5.57.7 8.37.08.67.12 1.4.16 2.16.13 2.41.28 5.08 1.65 6.85 2.83.76 6.04-.34 9.02-1.36 1.06-.36 2.08-.7 3.05-.96 18.93-5.52 39.16-6.87 58.7-4.41 20 2.31 40.08 8.25 57.45 18.55 1.95 1.1 4 1.81 6.12 2.5l1.77-3.35c-2.7-3.96-6.05-7.28-9.54-10.53ZM422.26 399.6c.13-4.24.27-8.47.03-12.67-.25-2.54-1.86-2.58-3.72-2.62-.33 0-.66 0-1-.03-.92 3.61-1.06 7.52-1.21 11.37-.06 1.66-.13 3.3-.25 4.91a198.7 198.7 0 0 1-4.5-11.36c-.14-.25-.25-.54-.37-.83-.43-1.08-.9-2.26-2.24-2.23-2.5-.06-5.02.4-7.53.84-1.15.2-2.3.42-3.44.57-18.15 3.2-37.02 9.52-52.08 20.37-6.61 4.82-13.05 11.1-16.67 18.52-1.44 3.11-2.83 6.47-1.59 9.9l.41.12c1.08.33 2.6.8 3.42.06.93-.7 1.82-1.43 2.72-2.15 2.06-1.68 4.1-3.34 6.5-4.6 7.97-4.3 16.79-7.19 25.5-9.59 13.84-3.56 28.46-6.2 42.8-5.7 1.83.01 3.63.27 5.43.53 1.88.26 3.77.53 5.67.53 1.8-1.27 1.85-3.62 1.89-5.77 0-.62.02-1.2.07-1.76-.02-2.8.07-5.6.16-8.42Z" fill="#000"/></g><g transform="translate(-279 -322)"><path d="M521.18 567.25c1.55-.38 3.33-1 4.93-.74 2 .78 2.04 3 1.05 4.64-4.12 2.62-10 2.81-14.26 4.89 3.42 13.46 3.76 27.5 0 40.93-3.26 12.19-10.2 24.02-20.7 31.3a35.76 35.76 0 0 1-24.22 6.54c-11.52-1.1-21.7-8.19-28.53-17.28-9.5-12.6-13.35-27.92-13.48-43.53.34-5.62.98-11.21 2.11-16.73-2.4-.78-5.59-1.13-7.5-2.84-.56-1.23-.2-2.85-.25-4.18 4.52-.02 8.3 1.66 12.66 2.56 29.55 5.95 59.5 3.04 88.2-5.56Z" fill="#000"/><path d="M506.94 577.11c5.23 17.71 3.27 38.43-6.69 54.17-4.13 6.48-9.68 11.96-16.73 15.17a29.31 29.31 0 0 1-25.4-.56c-8.06-4.02-14.57-11.42-18.7-19.32-7.58-14.67-9.44-32-5.52-48.03 10.46 2.5 21.07 3.05 31.77 3.27-1 6.74-.96 13.39-1.18 20.18 0 1.9-.16 4.1.5 5.92 1.09 1.71 4.65 1.2 4.75-1.06.58-8.4-.13-16.75 1.5-25.13 12-.25 24-2.21 35.7-4.62Z" fill="#EA869E"/></g><g transform="translate(-279 -322)"><path fill-rule="evenodd" clip-rule="evenodd" d="M577.04 416.1c16.03 2.47 31.24 9.63 42.99 20.86a80.3 80.3 0 0 1 24.24 45.54c1.78 12.34 1.1 25.15-2.8 37.04a79.23 79.23 0 0 1-25.44 37.5A79.64 79.64 0 0 1 564 575.23c-14.18-.1-28.4-4.38-40.5-11.72-23.74-14.43-38.9-41.4-38.21-69.26-4.95-5.36-10.7-9.6-18.3-9.71-7.78.07-14.32 5.68-17.23 12.6.78 6.7 1.53 13.27.63 20.02-1.7 15.12-8 29.64-18.58 40.66A70.05 70.05 0 0 1 382 579.83a69.6 69.6 0 0 1-35.05-8.76 69.78 69.78 0 0 1-32.3-38.71c-3.43-10.4-4.98-22.02-2.92-32.86a69.67 69.67 0 0 1 23.86-42.88c12.8-11.05 29.55-16.8 46.4-16.77 12.06.48 23.94 3.63 34.33 9.83a69.78 69.78 0 0 1 30.66 37.6c4.88-5.7 11.3-9.9 19.02-9.94 7.36-.37 14.18 2.55 19.7 7.27 1.7-8.66 3.83-17.07 7.9-24.97 8.88-18.08 24.8-32.3 43.62-39.33 12.7-4.85 26.4-5.96 39.82-4.2Zm-25.54 7.81c19.43-3.94 40.2.78 56.21 12.38 21.3 15.03 33 41.83 29.67 67.68a72.72 72.72 0 0 1-23.86 45.57 72.4 72.4 0 0 1-38.56 17.7 72.55 72.55 0 0 1-71.1-33.11c-9.1-14.4-13.1-32.28-10.5-49.16a72.47 72.47 0 0 1 18.06-38.53 72.54 72.54 0 0 1 40.08-22.53Zm-147.37 27.97c-11.18-4.55-23.8-5.55-35.62-3.26a62.64 62.64 0 0 0-36.57 22.34c-8.74 10.92-13.81 25.01-13.56 39.04-.22 16.16 6.52 32.29 17.9 43.73a62.42 62.42 0 0 0 30 17c15.46 3.52 32.04 1.39 45.78-6.67 15.41-8.7 26.57-24.55 30.12-41.82 2.14-12.06 1.31-24.55-3.44-35.92a62.7 62.7 0 0 0-34.61-34.44Z" fill="#000"/></g></g></svg>